# xmcd CD database file
#
# Track frame offsets:
#	150
#	17362
#	42716
#	64911
#	102843
#	131090
#	162858
#	194853
#
# Disc length: 3052 seconds
#
# Revision: 0
# Processed by: cddbd v1.5.2PL0 Copyright (c) Steve Scherf et al.
# Submitted via: CDex 1.51
#
DISCID=710bea08
DTITLE=SJQ - Animacy
DYEAR=2009
DGENRE=Jazz
TTITLE0=automata
TTITLE1=pico
TTITLE2=nano
TTITLE3=nox noctis aer
TTITLE4=s.o.m.
TTITLE5=mica
TTITLE6=a casus on the riverside
TTITLE7=qi
EXTD=YEAR: 2009
EXTT0=
EXTT1=
EXTT2=
EXTT3=
EXTT4=
EXTT5=
EXTT6=
EXTT7=
PLAYORDER=
